/* XPM */
static char *d519a48af78748e4fc76af373d295a05tC9cYLsVVQpHqPrm[] = {
/* columns rows colors chars-per-pixel */
"64 64 2 1 ",
"  c black",
". c #906D15",
/* pixels */
"..........................................                      ",
"..........................................                      ",
"..........................................                      ",
"..........................................                      ",
"..........................................                      ",
"..........................................                      ",
"..........................................                      ",
"..........................................                      ",
"..........................................                      ",
"..........................................                      ",
"..........................................                      ",
"..........................................                      ",
"..........................................                      ",
"..........................................                      ",
"..........................................                      ",
"..........................................                      ",
"..........................................                      ",
"..........................................                      ",
"..........................................                      ",
"..........................................                      ",
"..........................................                      ",
"..........................................                      ",
"..........................................                      ",
"..........................................                      ",
"..........................................                      ",
"..........................................                      ",
"..........................................                      ",
"..........................................                      ",
"..........................................                      ",
"..........................................                      ",
"..........................................                      ",
"..........................................                      ",
"..........................................                      ",
"..........................................                      ",
"..........................................                      ",
"..........................................                      ",
"..........................................                      ",
"..........................................                      ",
"..........................................                      ",
"..........................................                      ",
"..........................................                      ",
"..........................................                      ",
"..........................................                      ",
"..........................................                      ",
"..........................................                      ",
"..........................................                      ",
"..........................................                      ",
"..........................................                      ",
"..........................................                      ",
"..........................................                      ",
"..........................................                      ",
"..........................................                      ",
"..........................................                      ",
"..........................................                      ",
"..........................................                      ",
"..........................................                      ",
"..........................................                      ",
"..........................................                      ",
"..........................................                      ",
"..........................................                      ",
"..........................................                      ",
"..........................................                      ",
"..........................................                      ",
"..........................................                      "
};
