/* XPM */
static char *d3a2ac9726174ea2ed97177d7af42b7bhOPB5QUwOvyfxSZR[] = {
/* columns rows colors chars-per-pixel */
"64 64 2 1 ",
"  c black",
". c #906D15",
/* pixels */
".....................                                           ",
".....................                                           ",
".....................                                           ",
".....................                                           ",
".....................                                           ",
".....................                                           ",
".....................                                           ",
".....................                                           ",
".....................                                           ",
".....................                                           ",
".....................                                           ",
".....................                                           ",
".....................                                           ",
".....................                                           ",
".....................                                           ",
".....................                                           ",
".....................                                           ",
".....................                                           ",
".....................                                           ",
".....................                                           ",
".....................                                           ",
".....................                                           ",
".....................                                           ",
".....................                                           ",
".....................                                           ",
".....................                                           ",
".....................                                           ",
".....................                                           ",
".....................                                           ",
".....................                                           ",
".....................                                           ",
".....................                                           ",
".....................                                           ",
".....................                                           ",
".....................                                           ",
".....................                                           ",
".....................                                           ",
".....................                                           ",
".....................                                           ",
".....................                                           ",
".....................                                           ",
".....................                                           ",
".....................                                           ",
".....................                                           ",
".....................                                           ",
".....................                                           ",
".....................                                           ",
".....................                                           ",
".....................                                           ",
".....................                                           ",
".....................                                           ",
".....................                                           ",
".....................                                           ",
".....................                                           ",
".....................                                           ",
".....................                                           ",
".....................                                           ",
".....................                                           ",
".....................                                           ",
".....................                                           ",
".....................                                           ",
".....................                                           ",
".....................                                           ",
".....................                                           "
};
